G04 #@! TF.GenerationSoftware,KiCad,Pcbnew,7.0.9*
G04 #@! TF.CreationDate,2024-01-21T13:12:00+09:00*
G04 #@! TF.ProjectId,MB_Curling,4d425f43-7572-46c6-996e-672e6b696361,rev?*
G04 #@! TF.SameCoordinates,Original*
G04 #@! TF.FileFunction,Legend,Top*
G04 #@! TF.FilePolarity,Positive*
%FSLAX46Y46*%
G04 Gerber Fmt 4.6, Leading zero omitted, Abs format (unit mm)*
G04 Created by KiCad (PCBNEW 7.0.9) date 2024-01-21 13:12:00*
%MOMM*%
%LPD*%
G01*
G04 APERTURE LIST*
%ADD10C,0.150000*%
%ADD11C,0.120000*%
G04 APERTURE END LIST*
D10*
X110024819Y-89661904D02*
X110834342Y-89661904D01*
X110834342Y-89661904D02*
X110929580Y-89614285D01*
X110929580Y-89614285D02*
X110977200Y-89566666D01*
X110977200Y-89566666D02*
X111024819Y-89471428D01*
X111024819Y-89471428D02*
X111024819Y-89280952D01*
X111024819Y-89280952D02*
X110977200Y-89185714D01*
X110977200Y-89185714D02*
X110929580Y-89138095D01*
X110929580Y-89138095D02*
X110834342Y-89090476D01*
X110834342Y-89090476D02*
X110024819Y-89090476D01*
X110024819Y-88709523D02*
X110024819Y-88090476D01*
X110024819Y-88090476D02*
X110405771Y-88423809D01*
X110405771Y-88423809D02*
X110405771Y-88280952D01*
X110405771Y-88280952D02*
X110453390Y-88185714D01*
X110453390Y-88185714D02*
X110501009Y-88138095D01*
X110501009Y-88138095D02*
X110596247Y-88090476D01*
X110596247Y-88090476D02*
X110834342Y-88090476D01*
X110834342Y-88090476D02*
X110929580Y-88138095D01*
X110929580Y-88138095D02*
X110977200Y-88185714D01*
X110977200Y-88185714D02*
X111024819Y-88280952D01*
X111024819Y-88280952D02*
X111024819Y-88566666D01*
X111024819Y-88566666D02*
X110977200Y-88661904D01*
X110977200Y-88661904D02*
X110929580Y-88709523D01*
X135469580Y-77616666D02*
X135517200Y-77664285D01*
X135517200Y-77664285D02*
X135564819Y-77807142D01*
X135564819Y-77807142D02*
X135564819Y-77902380D01*
X135564819Y-77902380D02*
X135517200Y-78045237D01*
X135517200Y-78045237D02*
X135421961Y-78140475D01*
X135421961Y-78140475D02*
X135326723Y-78188094D01*
X135326723Y-78188094D02*
X135136247Y-78235713D01*
X135136247Y-78235713D02*
X134993390Y-78235713D01*
X134993390Y-78235713D02*
X134802914Y-78188094D01*
X134802914Y-78188094D02*
X134707676Y-78140475D01*
X134707676Y-78140475D02*
X134612438Y-78045237D01*
X134612438Y-78045237D02*
X134564819Y-77902380D01*
X134564819Y-77902380D02*
X134564819Y-77807142D01*
X134564819Y-77807142D02*
X134612438Y-77664285D01*
X134612438Y-77664285D02*
X134660057Y-77616666D01*
X134660057Y-77235713D02*
X134612438Y-77188094D01*
X134612438Y-77188094D02*
X134564819Y-77092856D01*
X134564819Y-77092856D02*
X134564819Y-76854761D01*
X134564819Y-76854761D02*
X134612438Y-76759523D01*
X134612438Y-76759523D02*
X134660057Y-76711904D01*
X134660057Y-76711904D02*
X134755295Y-76664285D01*
X134755295Y-76664285D02*
X134850533Y-76664285D01*
X134850533Y-76664285D02*
X134993390Y-76711904D01*
X134993390Y-76711904D02*
X135564819Y-77283332D01*
X135564819Y-77283332D02*
X135564819Y-76664285D01*
X109751905Y-60154819D02*
X109751905Y-59154819D01*
X109751905Y-59154819D02*
X110132857Y-59154819D01*
X110132857Y-59154819D02*
X110228095Y-59202438D01*
X110228095Y-59202438D02*
X110275714Y-59250057D01*
X110275714Y-59250057D02*
X110323333Y-59345295D01*
X110323333Y-59345295D02*
X110323333Y-59488152D01*
X110323333Y-59488152D02*
X110275714Y-59583390D01*
X110275714Y-59583390D02*
X110228095Y-59631009D01*
X110228095Y-59631009D02*
X110132857Y-59678628D01*
X110132857Y-59678628D02*
X109751905Y-59678628D01*
X110942381Y-59154819D02*
X111037619Y-59154819D01*
X111037619Y-59154819D02*
X111132857Y-59202438D01*
X111132857Y-59202438D02*
X111180476Y-59250057D01*
X111180476Y-59250057D02*
X111228095Y-59345295D01*
X111228095Y-59345295D02*
X111275714Y-59535771D01*
X111275714Y-59535771D02*
X111275714Y-59773866D01*
X111275714Y-59773866D02*
X111228095Y-59964342D01*
X111228095Y-59964342D02*
X111180476Y-60059580D01*
X111180476Y-60059580D02*
X111132857Y-60107200D01*
X111132857Y-60107200D02*
X111037619Y-60154819D01*
X111037619Y-60154819D02*
X110942381Y-60154819D01*
X110942381Y-60154819D02*
X110847143Y-60107200D01*
X110847143Y-60107200D02*
X110799524Y-60059580D01*
X110799524Y-60059580D02*
X110751905Y-59964342D01*
X110751905Y-59964342D02*
X110704286Y-59773866D01*
X110704286Y-59773866D02*
X110704286Y-59535771D01*
X110704286Y-59535771D02*
X110751905Y-59345295D01*
X110751905Y-59345295D02*
X110799524Y-59250057D01*
X110799524Y-59250057D02*
X110847143Y-59202438D01*
X110847143Y-59202438D02*
X110942381Y-59154819D01*
X133769580Y-90316666D02*
X133817200Y-90364285D01*
X133817200Y-90364285D02*
X133864819Y-90507142D01*
X133864819Y-90507142D02*
X133864819Y-90602380D01*
X133864819Y-90602380D02*
X133817200Y-90745237D01*
X133817200Y-90745237D02*
X133721961Y-90840475D01*
X133721961Y-90840475D02*
X133626723Y-90888094D01*
X133626723Y-90888094D02*
X133436247Y-90935713D01*
X133436247Y-90935713D02*
X133293390Y-90935713D01*
X133293390Y-90935713D02*
X133102914Y-90888094D01*
X133102914Y-90888094D02*
X133007676Y-90840475D01*
X133007676Y-90840475D02*
X132912438Y-90745237D01*
X132912438Y-90745237D02*
X132864819Y-90602380D01*
X132864819Y-90602380D02*
X132864819Y-90507142D01*
X132864819Y-90507142D02*
X132912438Y-90364285D01*
X132912438Y-90364285D02*
X132960057Y-90316666D01*
X132864819Y-89983332D02*
X132864819Y-89364285D01*
X132864819Y-89364285D02*
X133245771Y-89697618D01*
X133245771Y-89697618D02*
X133245771Y-89554761D01*
X133245771Y-89554761D02*
X133293390Y-89459523D01*
X133293390Y-89459523D02*
X133341009Y-89411904D01*
X133341009Y-89411904D02*
X133436247Y-89364285D01*
X133436247Y-89364285D02*
X133674342Y-89364285D01*
X133674342Y-89364285D02*
X133769580Y-89411904D01*
X133769580Y-89411904D02*
X133817200Y-89459523D01*
X133817200Y-89459523D02*
X133864819Y-89554761D01*
X133864819Y-89554761D02*
X133864819Y-89840475D01*
X133864819Y-89840475D02*
X133817200Y-89935713D01*
X133817200Y-89935713D02*
X133769580Y-89983332D01*
X147828095Y-93224819D02*
X147828095Y-94034342D01*
X147828095Y-94034342D02*
X147875714Y-94129580D01*
X147875714Y-94129580D02*
X147923333Y-94177200D01*
X147923333Y-94177200D02*
X148018571Y-94224819D01*
X148018571Y-94224819D02*
X148209047Y-94224819D01*
X148209047Y-94224819D02*
X148304285Y-94177200D01*
X148304285Y-94177200D02*
X148351904Y-94129580D01*
X148351904Y-94129580D02*
X148399523Y-94034342D01*
X148399523Y-94034342D02*
X148399523Y-93224819D01*
X149399523Y-94224819D02*
X148828095Y-94224819D01*
X149113809Y-94224819D02*
X149113809Y-93224819D01*
X149113809Y-93224819D02*
X149018571Y-93367676D01*
X149018571Y-93367676D02*
X148923333Y-93462914D01*
X148923333Y-93462914D02*
X148828095Y-93510533D01*
X104764819Y-73826666D02*
X104288628Y-74159999D01*
X104764819Y-74398094D02*
X103764819Y-74398094D01*
X103764819Y-74398094D02*
X103764819Y-74017142D01*
X103764819Y-74017142D02*
X103812438Y-73921904D01*
X103812438Y-73921904D02*
X103860057Y-73874285D01*
X103860057Y-73874285D02*
X103955295Y-73826666D01*
X103955295Y-73826666D02*
X104098152Y-73826666D01*
X104098152Y-73826666D02*
X104193390Y-73874285D01*
X104193390Y-73874285D02*
X104241009Y-73921904D01*
X104241009Y-73921904D02*
X104288628Y-74017142D01*
X104288628Y-74017142D02*
X104288628Y-74398094D01*
X104764819Y-72874285D02*
X104764819Y-73445713D01*
X104764819Y-73159999D02*
X103764819Y-73159999D01*
X103764819Y-73159999D02*
X103907676Y-73255237D01*
X103907676Y-73255237D02*
X104002914Y-73350475D01*
X104002914Y-73350475D02*
X104050533Y-73445713D01*
X128994819Y-71881904D02*
X129804342Y-71881904D01*
X129804342Y-71881904D02*
X129899580Y-71834285D01*
X129899580Y-71834285D02*
X129947200Y-71786666D01*
X129947200Y-71786666D02*
X129994819Y-71691428D01*
X129994819Y-71691428D02*
X129994819Y-71500952D01*
X129994819Y-71500952D02*
X129947200Y-71405714D01*
X129947200Y-71405714D02*
X129899580Y-71358095D01*
X129899580Y-71358095D02*
X129804342Y-71310476D01*
X129804342Y-71310476D02*
X128994819Y-71310476D01*
X129090057Y-70881904D02*
X129042438Y-70834285D01*
X129042438Y-70834285D02*
X128994819Y-70739047D01*
X128994819Y-70739047D02*
X128994819Y-70500952D01*
X128994819Y-70500952D02*
X129042438Y-70405714D01*
X129042438Y-70405714D02*
X129090057Y-70358095D01*
X129090057Y-70358095D02*
X129185295Y-70310476D01*
X129185295Y-70310476D02*
X129280533Y-70310476D01*
X129280533Y-70310476D02*
X129423390Y-70358095D01*
X129423390Y-70358095D02*
X129994819Y-70929523D01*
X129994819Y-70929523D02*
X129994819Y-70310476D01*
X98298095Y-58874819D02*
X98298095Y-57874819D01*
X98298095Y-58351009D02*
X98869523Y-58351009D01*
X98869523Y-58874819D02*
X98869523Y-57874819D01*
X99774285Y-57874819D02*
X99583809Y-57874819D01*
X99583809Y-57874819D02*
X99488571Y-57922438D01*
X99488571Y-57922438D02*
X99440952Y-57970057D01*
X99440952Y-57970057D02*
X99345714Y-58112914D01*
X99345714Y-58112914D02*
X99298095Y-58303390D01*
X99298095Y-58303390D02*
X99298095Y-58684342D01*
X99298095Y-58684342D02*
X99345714Y-58779580D01*
X99345714Y-58779580D02*
X99393333Y-58827200D01*
X99393333Y-58827200D02*
X99488571Y-58874819D01*
X99488571Y-58874819D02*
X99679047Y-58874819D01*
X99679047Y-58874819D02*
X99774285Y-58827200D01*
X99774285Y-58827200D02*
X99821904Y-58779580D01*
X99821904Y-58779580D02*
X99869523Y-58684342D01*
X99869523Y-58684342D02*
X99869523Y-58446247D01*
X99869523Y-58446247D02*
X99821904Y-58351009D01*
X99821904Y-58351009D02*
X99774285Y-58303390D01*
X99774285Y-58303390D02*
X99679047Y-58255771D01*
X99679047Y-58255771D02*
X99488571Y-58255771D01*
X99488571Y-58255771D02*
X99393333Y-58303390D01*
X99393333Y-58303390D02*
X99345714Y-58351009D01*
X99345714Y-58351009D02*
X99298095Y-58446247D01*
X152931905Y-60154819D02*
X152931905Y-59154819D01*
X152931905Y-59154819D02*
X153312857Y-59154819D01*
X153312857Y-59154819D02*
X153408095Y-59202438D01*
X153408095Y-59202438D02*
X153455714Y-59250057D01*
X153455714Y-59250057D02*
X153503333Y-59345295D01*
X153503333Y-59345295D02*
X153503333Y-59488152D01*
X153503333Y-59488152D02*
X153455714Y-59583390D01*
X153455714Y-59583390D02*
X153408095Y-59631009D01*
X153408095Y-59631009D02*
X153312857Y-59678628D01*
X153312857Y-59678628D02*
X152931905Y-59678628D01*
X154360476Y-59488152D02*
X154360476Y-60154819D01*
X154122381Y-59107200D02*
X153884286Y-59821485D01*
X153884286Y-59821485D02*
X154503333Y-59821485D01*
X109089580Y-82736666D02*
X109137200Y-82784285D01*
X109137200Y-82784285D02*
X109184819Y-82927142D01*
X109184819Y-82927142D02*
X109184819Y-83022380D01*
X109184819Y-83022380D02*
X109137200Y-83165237D01*
X109137200Y-83165237D02*
X109041961Y-83260475D01*
X109041961Y-83260475D02*
X108946723Y-83308094D01*
X108946723Y-83308094D02*
X108756247Y-83355713D01*
X108756247Y-83355713D02*
X108613390Y-83355713D01*
X108613390Y-83355713D02*
X108422914Y-83308094D01*
X108422914Y-83308094D02*
X108327676Y-83260475D01*
X108327676Y-83260475D02*
X108232438Y-83165237D01*
X108232438Y-83165237D02*
X108184819Y-83022380D01*
X108184819Y-83022380D02*
X108184819Y-82927142D01*
X108184819Y-82927142D02*
X108232438Y-82784285D01*
X108232438Y-82784285D02*
X108280057Y-82736666D01*
X109184819Y-81784285D02*
X109184819Y-82355713D01*
X109184819Y-82069999D02*
X108184819Y-82069999D01*
X108184819Y-82069999D02*
X108327676Y-82165237D01*
X108327676Y-82165237D02*
X108422914Y-82260475D01*
X108422914Y-82260475D02*
X108470533Y-82355713D01*
X98298095Y-91744819D02*
X98298095Y-90744819D01*
X98298095Y-91221009D02*
X98869523Y-91221009D01*
X98869523Y-91744819D02*
X98869523Y-90744819D01*
X99488571Y-91173390D02*
X99393333Y-91125771D01*
X99393333Y-91125771D02*
X99345714Y-91078152D01*
X99345714Y-91078152D02*
X99298095Y-90982914D01*
X99298095Y-90982914D02*
X99298095Y-90935295D01*
X99298095Y-90935295D02*
X99345714Y-90840057D01*
X99345714Y-90840057D02*
X99393333Y-90792438D01*
X99393333Y-90792438D02*
X99488571Y-90744819D01*
X99488571Y-90744819D02*
X99679047Y-90744819D01*
X99679047Y-90744819D02*
X99774285Y-90792438D01*
X99774285Y-90792438D02*
X99821904Y-90840057D01*
X99821904Y-90840057D02*
X99869523Y-90935295D01*
X99869523Y-90935295D02*
X99869523Y-90982914D01*
X99869523Y-90982914D02*
X99821904Y-91078152D01*
X99821904Y-91078152D02*
X99774285Y-91125771D01*
X99774285Y-91125771D02*
X99679047Y-91173390D01*
X99679047Y-91173390D02*
X99488571Y-91173390D01*
X99488571Y-91173390D02*
X99393333Y-91221009D01*
X99393333Y-91221009D02*
X99345714Y-91268628D01*
X99345714Y-91268628D02*
X99298095Y-91363866D01*
X99298095Y-91363866D02*
X99298095Y-91554342D01*
X99298095Y-91554342D02*
X99345714Y-91649580D01*
X99345714Y-91649580D02*
X99393333Y-91697200D01*
X99393333Y-91697200D02*
X99488571Y-91744819D01*
X99488571Y-91744819D02*
X99679047Y-91744819D01*
X99679047Y-91744819D02*
X99774285Y-91697200D01*
X99774285Y-91697200D02*
X99821904Y-91649580D01*
X99821904Y-91649580D02*
X99869523Y-91554342D01*
X99869523Y-91554342D02*
X99869523Y-91363866D01*
X99869523Y-91363866D02*
X99821904Y-91268628D01*
X99821904Y-91268628D02*
X99774285Y-91221009D01*
X99774285Y-91221009D02*
X99679047Y-91173390D01*
X131341905Y-60154819D02*
X131341905Y-59154819D01*
X131341905Y-59154819D02*
X131722857Y-59154819D01*
X131722857Y-59154819D02*
X131818095Y-59202438D01*
X131818095Y-59202438D02*
X131865714Y-59250057D01*
X131865714Y-59250057D02*
X131913333Y-59345295D01*
X131913333Y-59345295D02*
X131913333Y-59488152D01*
X131913333Y-59488152D02*
X131865714Y-59583390D01*
X131865714Y-59583390D02*
X131818095Y-59631009D01*
X131818095Y-59631009D02*
X131722857Y-59678628D01*
X131722857Y-59678628D02*
X131341905Y-59678628D01*
X132294286Y-59250057D02*
X132341905Y-59202438D01*
X132341905Y-59202438D02*
X132437143Y-59154819D01*
X132437143Y-59154819D02*
X132675238Y-59154819D01*
X132675238Y-59154819D02*
X132770476Y-59202438D01*
X132770476Y-59202438D02*
X132818095Y-59250057D01*
X132818095Y-59250057D02*
X132865714Y-59345295D01*
X132865714Y-59345295D02*
X132865714Y-59440533D01*
X132865714Y-59440533D02*
X132818095Y-59583390D01*
X132818095Y-59583390D02*
X132246667Y-60154819D01*
X132246667Y-60154819D02*
X132865714Y-60154819D01*
X164338095Y-91334819D02*
X164338095Y-90334819D01*
X164338095Y-90811009D02*
X164909523Y-90811009D01*
X164909523Y-91334819D02*
X164909523Y-90334819D01*
X165433333Y-91334819D02*
X165623809Y-91334819D01*
X165623809Y-91334819D02*
X165719047Y-91287200D01*
X165719047Y-91287200D02*
X165766666Y-91239580D01*
X165766666Y-91239580D02*
X165861904Y-91096723D01*
X165861904Y-91096723D02*
X165909523Y-90906247D01*
X165909523Y-90906247D02*
X165909523Y-90525295D01*
X165909523Y-90525295D02*
X165861904Y-90430057D01*
X165861904Y-90430057D02*
X165814285Y-90382438D01*
X165814285Y-90382438D02*
X165719047Y-90334819D01*
X165719047Y-90334819D02*
X165528571Y-90334819D01*
X165528571Y-90334819D02*
X165433333Y-90382438D01*
X165433333Y-90382438D02*
X165385714Y-90430057D01*
X165385714Y-90430057D02*
X165338095Y-90525295D01*
X165338095Y-90525295D02*
X165338095Y-90763390D01*
X165338095Y-90763390D02*
X165385714Y-90858628D01*
X165385714Y-90858628D02*
X165433333Y-90906247D01*
X165433333Y-90906247D02*
X165528571Y-90953866D01*
X165528571Y-90953866D02*
X165719047Y-90953866D01*
X165719047Y-90953866D02*
X165814285Y-90906247D01*
X165814285Y-90906247D02*
X165861904Y-90858628D01*
X165861904Y-90858628D02*
X165909523Y-90763390D01*
X119911905Y-60154819D02*
X119911905Y-59154819D01*
X119911905Y-59154819D02*
X120292857Y-59154819D01*
X120292857Y-59154819D02*
X120388095Y-59202438D01*
X120388095Y-59202438D02*
X120435714Y-59250057D01*
X120435714Y-59250057D02*
X120483333Y-59345295D01*
X120483333Y-59345295D02*
X120483333Y-59488152D01*
X120483333Y-59488152D02*
X120435714Y-59583390D01*
X120435714Y-59583390D02*
X120388095Y-59631009D01*
X120388095Y-59631009D02*
X120292857Y-59678628D01*
X120292857Y-59678628D02*
X119911905Y-59678628D01*
X121435714Y-60154819D02*
X120864286Y-60154819D01*
X121150000Y-60154819D02*
X121150000Y-59154819D01*
X121150000Y-59154819D02*
X121054762Y-59297676D01*
X121054762Y-59297676D02*
X120959524Y-59392914D01*
X120959524Y-59392914D02*
X120864286Y-59440533D01*
X142771905Y-60154819D02*
X142771905Y-59154819D01*
X142771905Y-59154819D02*
X143152857Y-59154819D01*
X143152857Y-59154819D02*
X143248095Y-59202438D01*
X143248095Y-59202438D02*
X143295714Y-59250057D01*
X143295714Y-59250057D02*
X143343333Y-59345295D01*
X143343333Y-59345295D02*
X143343333Y-59488152D01*
X143343333Y-59488152D02*
X143295714Y-59583390D01*
X143295714Y-59583390D02*
X143248095Y-59631009D01*
X143248095Y-59631009D02*
X143152857Y-59678628D01*
X143152857Y-59678628D02*
X142771905Y-59678628D01*
X143676667Y-59154819D02*
X144295714Y-59154819D01*
X144295714Y-59154819D02*
X143962381Y-59535771D01*
X143962381Y-59535771D02*
X144105238Y-59535771D01*
X144105238Y-59535771D02*
X144200476Y-59583390D01*
X144200476Y-59583390D02*
X144248095Y-59631009D01*
X144248095Y-59631009D02*
X144295714Y-59726247D01*
X144295714Y-59726247D02*
X144295714Y-59964342D01*
X144295714Y-59964342D02*
X144248095Y-60059580D01*
X144248095Y-60059580D02*
X144200476Y-60107200D01*
X144200476Y-60107200D02*
X144105238Y-60154819D01*
X144105238Y-60154819D02*
X143819524Y-60154819D01*
X143819524Y-60154819D02*
X143724286Y-60107200D01*
X143724286Y-60107200D02*
X143676667Y-60059580D01*
X164338095Y-58814819D02*
X164338095Y-57814819D01*
X164338095Y-58291009D02*
X164909523Y-58291009D01*
X164909523Y-58814819D02*
X164909523Y-57814819D01*
X165290476Y-57814819D02*
X165957142Y-57814819D01*
X165957142Y-57814819D02*
X165528571Y-58814819D01*
D11*
X111570000Y-94020000D02*
X127460000Y-94020000D01*
X111570000Y-94020000D02*
X111570000Y-83780000D01*
X127460000Y-94020000D02*
X127460000Y-83780000D01*
X127460000Y-92710000D02*
X130000000Y-92710000D01*
X127460000Y-90170000D02*
X130000000Y-90170000D01*
X127460000Y-87630000D02*
X130000000Y-87630000D01*
X127460000Y-85090000D02*
X130000000Y-85090000D01*
X111570000Y-83780000D02*
X127460000Y-83780000D01*
X136240000Y-78079000D02*
X136240000Y-76821000D01*
X138080000Y-78079000D02*
X138080000Y-76821000D01*
X135685000Y-92954775D02*
X135685000Y-92454775D01*
X135435000Y-92704775D02*
X135935000Y-92704775D01*
X134580000Y-90150000D02*
X139740000Y-90150000D01*
X134580000Y-90110000D02*
X139740000Y-90110000D01*
X134581000Y-90070000D02*
X139739000Y-90070000D01*
X134582000Y-90030000D02*
X139738000Y-90030000D01*
X134584000Y-89990000D02*
X139736000Y-89990000D01*
X134587000Y-89950000D02*
X139733000Y-89950000D01*
X134591000Y-89910000D02*
X136120000Y-89910000D01*
X138200000Y-89910000D02*
X139729000Y-89910000D01*
X134595000Y-89870000D02*
X136120000Y-89870000D01*
X138200000Y-89870000D02*
X139725000Y-89870000D01*
X134599000Y-89830000D02*
X136120000Y-89830000D01*
X138200000Y-89830000D02*
X139721000Y-89830000D01*
X134604000Y-89790000D02*
X136120000Y-89790000D01*
X138200000Y-89790000D02*
X139716000Y-89790000D01*
X134610000Y-89750000D02*
X136120000Y-89750000D01*
X138200000Y-89750000D02*
X139710000Y-89750000D01*
X134617000Y-89710000D02*
X136120000Y-89710000D01*
X138200000Y-89710000D02*
X139703000Y-89710000D01*
X134624000Y-89670000D02*
X136120000Y-89670000D01*
X138200000Y-89670000D02*
X139696000Y-89670000D01*
X134632000Y-89630000D02*
X136120000Y-89630000D01*
X138200000Y-89630000D02*
X139688000Y-89630000D01*
X134640000Y-89590000D02*
X136120000Y-89590000D01*
X138200000Y-89590000D02*
X139680000Y-89590000D01*
X134649000Y-89550000D02*
X136120000Y-89550000D01*
X138200000Y-89550000D02*
X139671000Y-89550000D01*
X134659000Y-89510000D02*
X136120000Y-89510000D01*
X138200000Y-89510000D02*
X139661000Y-89510000D01*
X134669000Y-89470000D02*
X136120000Y-89470000D01*
X138200000Y-89470000D02*
X139651000Y-89470000D01*
X134680000Y-89429000D02*
X136120000Y-89429000D01*
X138200000Y-89429000D02*
X139640000Y-89429000D01*
X134692000Y-89389000D02*
X136120000Y-89389000D01*
X138200000Y-89389000D02*
X139628000Y-89389000D01*
X134705000Y-89349000D02*
X136120000Y-89349000D01*
X138200000Y-89349000D02*
X139615000Y-89349000D01*
X134718000Y-89309000D02*
X136120000Y-89309000D01*
X138200000Y-89309000D02*
X139602000Y-89309000D01*
X134732000Y-89269000D02*
X136120000Y-89269000D01*
X138200000Y-89269000D02*
X139588000Y-89269000D01*
X134746000Y-89229000D02*
X136120000Y-89229000D01*
X138200000Y-89229000D02*
X139574000Y-89229000D01*
X134762000Y-89189000D02*
X136120000Y-89189000D01*
X138200000Y-89189000D02*
X139558000Y-89189000D01*
X134778000Y-89149000D02*
X136120000Y-89149000D01*
X138200000Y-89149000D02*
X139542000Y-89149000D01*
X134795000Y-89109000D02*
X136120000Y-89109000D01*
X138200000Y-89109000D02*
X139525000Y-89109000D01*
X134812000Y-89069000D02*
X136120000Y-89069000D01*
X138200000Y-89069000D02*
X139508000Y-89069000D01*
X134831000Y-89029000D02*
X136120000Y-89029000D01*
X138200000Y-89029000D02*
X139489000Y-89029000D01*
X134850000Y-88989000D02*
X136120000Y-88989000D01*
X138200000Y-88989000D02*
X139470000Y-88989000D01*
X134870000Y-88949000D02*
X136120000Y-88949000D01*
X138200000Y-88949000D02*
X139450000Y-88949000D01*
X134892000Y-88909000D02*
X136120000Y-88909000D01*
X138200000Y-88909000D02*
X139428000Y-88909000D01*
X134913000Y-88869000D02*
X136120000Y-88869000D01*
X138200000Y-88869000D02*
X139407000Y-88869000D01*
X134936000Y-88829000D02*
X136120000Y-88829000D01*
X138200000Y-88829000D02*
X139384000Y-88829000D01*
X134960000Y-88789000D02*
X136120000Y-88789000D01*
X138200000Y-88789000D02*
X139360000Y-88789000D01*
X134985000Y-88749000D02*
X136120000Y-88749000D01*
X138200000Y-88749000D02*
X139335000Y-88749000D01*
X135011000Y-88709000D02*
X136120000Y-88709000D01*
X138200000Y-88709000D02*
X139309000Y-88709000D01*
X135038000Y-88669000D02*
X136120000Y-88669000D01*
X138200000Y-88669000D02*
X139282000Y-88669000D01*
X135065000Y-88629000D02*
X136120000Y-88629000D01*
X138200000Y-88629000D02*
X139255000Y-88629000D01*
X135095000Y-88589000D02*
X136120000Y-88589000D01*
X138200000Y-88589000D02*
X139225000Y-88589000D01*
X135125000Y-88549000D02*
X136120000Y-88549000D01*
X138200000Y-88549000D02*
X139195000Y-88549000D01*
X135156000Y-88509000D02*
X136120000Y-88509000D01*
X138200000Y-88509000D02*
X139164000Y-88509000D01*
X135189000Y-88469000D02*
X136120000Y-88469000D01*
X138200000Y-88469000D02*
X139131000Y-88469000D01*
X135223000Y-88429000D02*
X136120000Y-88429000D01*
X138200000Y-88429000D02*
X139097000Y-88429000D01*
X135259000Y-88389000D02*
X136120000Y-88389000D01*
X138200000Y-88389000D02*
X139061000Y-88389000D01*
X135296000Y-88349000D02*
X136120000Y-88349000D01*
X138200000Y-88349000D02*
X139024000Y-88349000D01*
X135334000Y-88309000D02*
X136120000Y-88309000D01*
X138200000Y-88309000D02*
X138986000Y-88309000D01*
X135375000Y-88269000D02*
X136120000Y-88269000D01*
X138200000Y-88269000D02*
X138945000Y-88269000D01*
X135417000Y-88229000D02*
X136120000Y-88229000D01*
X138200000Y-88229000D02*
X138903000Y-88229000D01*
X135461000Y-88189000D02*
X136120000Y-88189000D01*
X138200000Y-88189000D02*
X138859000Y-88189000D01*
X135507000Y-88149000D02*
X136120000Y-88149000D01*
X138200000Y-88149000D02*
X138813000Y-88149000D01*
X135555000Y-88109000D02*
X136120000Y-88109000D01*
X138200000Y-88109000D02*
X138765000Y-88109000D01*
X135606000Y-88069000D02*
X136120000Y-88069000D01*
X138200000Y-88069000D02*
X138714000Y-88069000D01*
X135660000Y-88029000D02*
X136120000Y-88029000D01*
X138200000Y-88029000D02*
X138660000Y-88029000D01*
X135717000Y-87989000D02*
X136120000Y-87989000D01*
X138200000Y-87989000D02*
X138603000Y-87989000D01*
X135777000Y-87949000D02*
X136120000Y-87949000D01*
X138200000Y-87949000D02*
X138543000Y-87949000D01*
X135841000Y-87909000D02*
X136120000Y-87909000D01*
X138200000Y-87909000D02*
X138479000Y-87909000D01*
X135909000Y-87869000D02*
X136120000Y-87869000D01*
X138200000Y-87869000D02*
X138411000Y-87869000D01*
X135982000Y-87829000D02*
X138338000Y-87829000D01*
X136062000Y-87789000D02*
X138258000Y-87789000D01*
X136149000Y-87749000D02*
X138171000Y-87749000D01*
X136245000Y-87709000D02*
X138075000Y-87709000D01*
X136355000Y-87669000D02*
X137965000Y-87669000D01*
X136483000Y-87629000D02*
X137837000Y-87629000D01*
X136642000Y-87589000D02*
X137678000Y-87589000D01*
X136876000Y-87549000D02*
X137444000Y-87549000D01*
X139780000Y-90150000D02*
G75*
G03*
X139780000Y-90150000I-2620000J0D01*
G01*
X151240000Y-92770000D02*
X151240000Y-72330000D01*
X151240000Y-72330000D02*
X145940000Y-72330000D01*
X149590000Y-92770000D02*
X151240000Y-92770000D01*
X145940000Y-92770000D02*
X147590000Y-92770000D01*
X145940000Y-72330000D02*
X145940000Y-92770000D01*
X149590000Y-92770000D02*
G75*
G03*
X147590000Y-92770000I-1000000J0D01*
G01*
X106680000Y-77700000D02*
X106680000Y-76930000D01*
X105310000Y-76930000D02*
X108050000Y-76930000D01*
X108050000Y-76930000D02*
X108050000Y-70390000D01*
X105310000Y-70390000D02*
X105310000Y-76930000D01*
X108050000Y-70390000D02*
X105310000Y-70390000D01*
X106680000Y-69620000D02*
X106680000Y-70390000D01*
X111570000Y-81320000D02*
X127460000Y-81320000D01*
X111570000Y-81320000D02*
X111570000Y-71080000D01*
X127460000Y-81320000D02*
X127460000Y-71080000D01*
X127460000Y-78740000D02*
X130000000Y-78740000D01*
X127460000Y-76200000D02*
X130000000Y-76200000D01*
X127460000Y-73660000D02*
X130000000Y-73660000D01*
X111570000Y-71080000D02*
X127460000Y-71080000D01*
X107600000Y-81941000D02*
X107600000Y-83199000D01*
X105760000Y-81941000D02*
X105760000Y-83199000D01*
M02*
