G04 #@! TF.GenerationSoftware,KiCad,Pcbnew,7.0.9*
G04 #@! TF.CreationDate,2024-01-21T13:12:00+09:00*
G04 #@! TF.ProjectId,MB_Curling,4d425f43-7572-46c6-996e-672e6b696361,rev?*
G04 #@! TF.SameCoordinates,Original*
G04 #@! TF.FileFunction,Legend,Bot*
G04 #@! TF.FilePolarity,Positive*
%FSLAX46Y46*%
G04 Gerber Fmt 4.6, Leading zero omitted, Abs format (unit mm)*
G04 Created by KiCad (PCBNEW 7.0.9) date 2024-01-21 13:12:00*
%MOMM*%
%LPD*%
G01*
G04 APERTURE LIST*
%ADD10C,0.150000*%
%ADD11C,0.120000*%
G04 APERTURE END LIST*
D10*
X162893333Y-85604819D02*
X162893333Y-86319104D01*
X162893333Y-86319104D02*
X162940952Y-86461961D01*
X162940952Y-86461961D02*
X163036190Y-86557200D01*
X163036190Y-86557200D02*
X163179047Y-86604819D01*
X163179047Y-86604819D02*
X163274285Y-86604819D01*
X162512380Y-85604819D02*
X161893333Y-85604819D01*
X161893333Y-85604819D02*
X162226666Y-85985771D01*
X162226666Y-85985771D02*
X162083809Y-85985771D01*
X162083809Y-85985771D02*
X161988571Y-86033390D01*
X161988571Y-86033390D02*
X161940952Y-86081009D01*
X161940952Y-86081009D02*
X161893333Y-86176247D01*
X161893333Y-86176247D02*
X161893333Y-86414342D01*
X161893333Y-86414342D02*
X161940952Y-86509580D01*
X161940952Y-86509580D02*
X161988571Y-86557200D01*
X161988571Y-86557200D02*
X162083809Y-86604819D01*
X162083809Y-86604819D02*
X162369523Y-86604819D01*
X162369523Y-86604819D02*
X162464761Y-86557200D01*
X162464761Y-86557200D02*
X162512380Y-86509580D01*
X101228333Y-78404819D02*
X101228333Y-79119104D01*
X101228333Y-79119104D02*
X101275952Y-79261961D01*
X101275952Y-79261961D02*
X101371190Y-79357200D01*
X101371190Y-79357200D02*
X101514047Y-79404819D01*
X101514047Y-79404819D02*
X101609285Y-79404819D01*
X100228333Y-79404819D02*
X100799761Y-79404819D01*
X100514047Y-79404819D02*
X100514047Y-78404819D01*
X100514047Y-78404819D02*
X100609285Y-78547676D01*
X100609285Y-78547676D02*
X100704523Y-78642914D01*
X100704523Y-78642914D02*
X100799761Y-78690533D01*
X162893333Y-75444819D02*
X162893333Y-76159104D01*
X162893333Y-76159104D02*
X162940952Y-76301961D01*
X162940952Y-76301961D02*
X163036190Y-76397200D01*
X163036190Y-76397200D02*
X163179047Y-76444819D01*
X163179047Y-76444819D02*
X163274285Y-76444819D01*
X162464761Y-75540057D02*
X162417142Y-75492438D01*
X162417142Y-75492438D02*
X162321904Y-75444819D01*
X162321904Y-75444819D02*
X162083809Y-75444819D01*
X162083809Y-75444819D02*
X161988571Y-75492438D01*
X161988571Y-75492438D02*
X161940952Y-75540057D01*
X161940952Y-75540057D02*
X161893333Y-75635295D01*
X161893333Y-75635295D02*
X161893333Y-75730533D01*
X161893333Y-75730533D02*
X161940952Y-75873390D01*
X161940952Y-75873390D02*
X162512380Y-76444819D01*
X162512380Y-76444819D02*
X161893333Y-76444819D01*
X101228333Y-68244819D02*
X101228333Y-68959104D01*
X101228333Y-68959104D02*
X101275952Y-69101961D01*
X101275952Y-69101961D02*
X101371190Y-69197200D01*
X101371190Y-69197200D02*
X101514047Y-69244819D01*
X101514047Y-69244819D02*
X101609285Y-69244819D01*
X100323571Y-68578152D02*
X100323571Y-69244819D01*
X100561666Y-68197200D02*
X100799761Y-68911485D01*
X100799761Y-68911485D02*
X100180714Y-68911485D01*
D11*
X161230000Y-79950000D02*
X163890000Y-79950000D01*
X161230000Y-82550000D02*
X161230000Y-79950000D01*
X161230000Y-82550000D02*
X163890000Y-82550000D01*
X161230000Y-83820000D02*
X161230000Y-85150000D01*
X161230000Y-85150000D02*
X162560000Y-85150000D01*
X163890000Y-82550000D02*
X163890000Y-79950000D01*
X102225000Y-85150000D02*
X99565000Y-85150000D01*
X102225000Y-82550000D02*
X102225000Y-85150000D01*
X102225000Y-82550000D02*
X99565000Y-82550000D01*
X102225000Y-81280000D02*
X102225000Y-79950000D01*
X102225000Y-79950000D02*
X100895000Y-79950000D01*
X99565000Y-82550000D02*
X99565000Y-85150000D01*
X161230000Y-69790000D02*
X163890000Y-69790000D01*
X161230000Y-72390000D02*
X161230000Y-69790000D01*
X161230000Y-72390000D02*
X163890000Y-72390000D01*
X161230000Y-73660000D02*
X161230000Y-74990000D01*
X161230000Y-74990000D02*
X162560000Y-74990000D01*
X163890000Y-72390000D02*
X163890000Y-69790000D01*
X102225000Y-74990000D02*
X99565000Y-74990000D01*
X102225000Y-72390000D02*
X102225000Y-74990000D01*
X102225000Y-72390000D02*
X99565000Y-72390000D01*
X102225000Y-71120000D02*
X102225000Y-69790000D01*
X102225000Y-69790000D02*
X100895000Y-69790000D01*
X99565000Y-72390000D02*
X99565000Y-74990000D01*
M02*
