M48
; DRILL file {KiCad 7.0.9} date Sun Jan 21 13:12:54 2024
; FORMAT={-:-/ absolute / metric / decimal}
; #@! TF.CreationDate,2024-01-21T13:12:54+09:00
; #@! TF.GenerationSoftware,Kicad,Pcbnew,7.0.9
; #@! TF.FileFunction,Plated,1,2,PTH
FMAT,2
METRIC
; #@! TA.AperFunction,Plated,PTH,ViaDrill
T1C0.400
; #@! TA.AperFunction,Plated,PTH,ComponentDrill
T2C0.800
; #@! TA.AperFunction,Plated,PTH,ComponentDrill
T3C1.000
; #@! TA.AperFunction,Plated,PTH,ComponentDrill
T4C1.100
; #@! TA.AperFunction,Plated,PTH,ComponentDrill
T5C3.200
%
G90
G05
T1
X99.06Y-66.04
X99.06Y-76.2
X101.6Y-68.58
X104.14Y-60.96
X104.14Y-66.04
X104.14Y-86.36
X104.14Y-91.44
X109.22Y-73.66
X109.22Y-86.36
X109.22Y-91.44
X111.76Y-68.58
X114.3Y-63.5
X114.3Y-93.98
X116.84Y-73.66
X119.38Y-68.58
X119.38Y-76.2
X119.38Y-88.9
X119.38Y-93.98
X121.92Y-83.82
X124.46Y-73.66
X124.46Y-91.44
X129.54Y-68.58
X137.16Y-63.5
X137.16Y-83.82
X139.7Y-73.66
X139.7Y-81.28
X142.24Y-71.12
X147.32Y-66.04
X147.32Y-76.2
X147.32Y-81.28
X147.32Y-86.36
X149.86Y-60.96
X149.86Y-78.74
X149.86Y-83.82
X149.86Y-91.44
X157.48Y-68.58
X157.48Y-73.66
X157.48Y-83.82
X160.02Y-66.04
X160.02Y-93.98
X165.1Y-68.58
X165.1Y-78.74
X165.1Y-86.36
T2
X106.68Y-68.58
X106.68Y-78.74
X106.68Y-81.32
X106.68Y-83.82
X137.16Y-76.2
X137.16Y-78.7
X137.16Y-88.9
X137.16Y-91.4
X144.78Y-73.66
X144.78Y-76.2
X144.78Y-78.74
X144.78Y-81.28
X144.78Y-83.82
X144.78Y-86.36
X144.78Y-88.9
X144.78Y-91.44
X152.4Y-73.66
X152.4Y-76.2
X152.4Y-78.74
X152.4Y-81.28
X152.4Y-83.82
X152.4Y-86.36
X152.4Y-88.9
X152.4Y-91.44
T3
X100.895Y-71.12
X100.895Y-73.66
X100.895Y-81.28
X100.895Y-83.82
X162.56Y-71.12
X162.56Y-73.66
X162.56Y-81.28
X162.56Y-83.82
T4
X131.15Y-73.66
X131.15Y-76.2
X131.15Y-78.74
X131.15Y-85.09
X131.15Y-87.63
X131.15Y-90.17
X131.15Y-92.71
T5
X110.49Y-63.5
X120.65Y-63.5
X132.08Y-63.5
X143.51Y-63.5
X153.67Y-63.5
T0
M30
